<?xml version="1.0" encoding="utf-8"?><svg viewBox="0 0 160 24" xmlns="http://www.w3.org/2000/svg" xmlns:xlink="http://www.w3.org/1999/xlink"><style>:root>svg{display:none}:root>svg:target{display:block}</style><svg fill="none" viewBox="0 0 160 20" id="logo" xmlns="http://www.w3.org/2000/svg"><path d="M29.24.331v11.41c0 2.688-.735 4.742-2.205 6.16C25.564 19.3 23.478 20 20.779 20c-1.341 0-2.542-.193-3.603-.58-1.043-.387-1.9-.93-2.57-1.63-.688.7-1.554 1.243-2.597 1.63-1.043.387-2.225.58-3.547.58-2.7 0-4.785-.7-6.256-2.1C.736 16.484 0 14.43 0 11.74V.331h4.524v11.271c0 1.566.326 2.726.978 3.48.652.737 1.62 1.106 2.904 1.106 2.626 0 3.938-1.529 3.938-4.586V.332h4.525v11.27c0 3.057 1.322 4.586 3.965 4.586 2.57 0 3.855-1.529 3.855-4.586V.332h4.552zM97.687.331v11.41c0 2.688-.736 4.742-2.207 6.16C94.01 19.3 91.924 20 89.225 20c-1.341 0-2.542-.193-3.603-.58-1.043-.387-1.9-.93-2.57-1.63-.689.7-1.554 1.243-2.597 1.63-1.043.387-2.225.58-3.547.58-2.7 0-4.785-.7-6.256-2.1-1.47-1.417-2.206-3.47-2.206-6.16V.331h4.524v11.271c0 1.566.326 2.726.978 3.48.651.737 1.62 1.106 2.904 1.106 2.626 0 3.938-1.529 3.938-4.586V.332h4.524v11.27c0 3.057 1.323 4.586 3.966 4.586 2.57 0 3.854-1.529 3.854-4.586V.332h4.553zM110.957 0c1.806 0 3.38.35 4.72 1.05 1.341.7 2.384 1.73 3.128 3.094.745 1.362 1.117 3.01 1.117 4.944v10.58h-4.524v-4.64h-8.937v4.64h-4.469V9.089c0-1.933.373-3.582 1.118-4.944.744-1.363 1.787-2.394 3.128-3.094 1.34-.7 2.913-1.05 4.719-1.05zm4.441 11.437V8.674c0-1.602-.4-2.808-1.201-3.619-.801-.828-1.89-1.243-3.267-1.243-1.397 0-2.495.415-3.296 1.243-.782.81-1.173 2.017-1.173 3.619v2.763h8.937zM142.638.331l-8.462 19.338h-4.468L121.273.33h4.888l5.948 13.813L138.142.33h4.496zM160 18.011c-.931.626-2.104 1.114-3.519 1.464-1.396.35-2.886.525-4.468.525-1.974 0-3.65-.24-5.028-.718-1.377-.497-2.42-1.179-3.128-2.044a4.692 4.692 0 01-1.061-3.011c0-1.032.289-1.943.866-2.735.577-.792 1.368-1.382 2.374-1.768a4.553 4.553 0 01-1.788-1.658c-.409-.7-.614-1.482-.614-2.348 0-1.05.326-2.007.978-2.873.651-.865 1.638-1.556 2.96-2.072C148.894.258 150.514 0 152.431 0c1.267 0 2.505.129 3.715.387 1.21.24 2.262.57 3.156.994l-1.257 3.426a12.823 12.823 0 00-5.446-1.188c-1.452 0-2.551.22-3.296.663-.726.423-1.089 1.003-1.089 1.74 0 .681.242 1.206.726 1.575.503.35 1.257.525 2.263.525h5.334v3.536h-5.614c-1.135 0-2.011.193-2.625.58-.614.386-.922.948-.922 1.685 0 .773.391 1.38 1.173 1.823.801.423 2.021.635 3.659.635 1.154 0 2.309-.147 3.463-.442 1.154-.313 2.132-.746 2.933-1.298L160 18.01z" fill="#292E39"/><path d="M56.823 11.202H33.548V7.83h23.275l-4.121-4.155 2.365-2.385 8.159 8.226-8.159 8.226-2.365-2.385 4.121-4.155z" fill="#6D31EE"/></svg><svg fill="none" viewBox="0 0 160 20" id="logofooter" xmlns="http://www.w3.org/2000/svg"><path d="M29.24.331v11.41c0 2.688-.735 4.742-2.205 6.16C25.564 19.3 23.478 20 20.779 20c-1.341 0-2.542-.193-3.603-.58-1.043-.387-1.9-.93-2.57-1.63-.688.7-1.554 1.243-2.597 1.63-1.043.387-2.225.58-3.547.58-2.7 0-4.785-.7-6.256-2.1C.736 16.484 0 14.43 0 11.74V.331h4.524v11.271c0 1.566.326 2.726.978 3.48.652.737 1.62 1.106 2.904 1.106 2.626 0 3.938-1.529 3.938-4.586V.332h4.525v11.27c0 3.057 1.322 4.586 3.965 4.586 2.57 0 3.855-1.529 3.855-4.586V.332h4.552zM97.687.331v11.41c0 2.688-.736 4.742-2.207 6.16C94.01 19.3 91.924 20 89.225 20c-1.341 0-2.542-.193-3.603-.58-1.043-.387-1.9-.93-2.57-1.63-.689.7-1.554 1.243-2.597 1.63-1.043.387-2.225.58-3.547.58-2.7 0-4.785-.7-6.256-2.1-1.47-1.417-2.206-3.47-2.206-6.16V.331h4.524v11.271c0 1.566.326 2.726.978 3.48.651.737 1.62 1.106 2.904 1.106 2.626 0 3.938-1.529 3.938-4.586V.332h4.524v11.27c0 3.057 1.323 4.586 3.966 4.586 2.57 0 3.854-1.529 3.854-4.586V.332h4.553zM110.957 0c1.806 0 3.38.35 4.72 1.05 1.341.7 2.384 1.73 3.128 3.094.745 1.362 1.117 3.01 1.117 4.944v10.58h-4.524v-4.64h-8.937v4.64h-4.469V9.089c0-1.933.373-3.582 1.118-4.944.744-1.363 1.787-2.394 3.128-3.094 1.34-.7 2.913-1.05 4.719-1.05zm4.441 11.437V8.674c0-1.602-.4-2.808-1.201-3.619-.801-.828-1.89-1.243-3.267-1.243-1.397 0-2.495.415-3.296 1.243-.782.81-1.173 2.017-1.173 3.619v2.763h8.937zM142.638.331l-8.462 19.338h-4.468L121.273.33h4.888l5.948 13.813L138.142.33h4.496zM160 18.011c-.931.626-2.104 1.114-3.519 1.464-1.396.35-2.886.525-4.468.525-1.974 0-3.65-.24-5.028-.718-1.377-.497-2.42-1.179-3.128-2.044a4.692 4.692 0 01-1.061-3.011c0-1.032.289-1.943.866-2.735.577-.792 1.368-1.382 2.374-1.768a4.553 4.553 0 01-1.788-1.658c-.409-.7-.614-1.482-.614-2.348 0-1.05.326-2.007.978-2.873.651-.865 1.638-1.556 2.96-2.072C148.894.258 150.514 0 152.431 0c1.267 0 2.505.129 3.715.387 1.21.24 2.262.57 3.156.994l-1.257 3.426a12.823 12.823 0 00-5.446-1.188c-1.452 0-2.551.22-3.296.663-.726.423-1.089 1.003-1.089 1.74 0 .681.242 1.206.726 1.575.503.35 1.257.525 2.263.525h5.334v3.536h-5.614c-1.135 0-2.011.193-2.625.58-.614.386-.922.948-.922 1.685 0 .773.391 1.38 1.173 1.823.801.423 2.021.635 3.659.635 1.154 0 2.309-.147 3.463-.442 1.154-.313 2.132-.746 2.933-1.298L160 18.01z" fill="#fff"/><path d="M56.823 11.203H33.548V7.83h23.275l-4.121-4.155 2.365-2.384 8.159 8.225-8.159 8.226-2.365-2.384 4.121-4.155z" fill="#AA9DFA"/></svg><svg fill="none" viewBox="0 0 24 24" id="social_(1)" xmlns="http://www.w3.org/2000/svg"><path d="M15.78 22v-7.74h2.592l.388-3.009h-2.98v-1.92c0-.871.242-1.465 1.491-1.465h1.593V5.174a21.323 21.323 0 00-2.322-.118c-2.296 0-3.869 1.402-3.869 3.977v2.218h-2.597v3.009h2.597V22H3.111A1.111 1.111 0 012 20.889V3.11A1.111 1.111 0 013.111 2H20.89A1.111 1.111 0 0122 3.111V20.89A1.111 1.111 0 0120.889 22H15.78z" fill="#A1A6B4"/></svg><svg fill="none" viewBox="0 0 24 24" id="social_(2)" xmlns="http://www.w3.org/2000/svg"><path d="M22.162 5.656a8.384 8.384 0 01-2.402.658A4.196 4.196 0 0021.6 4c-.82.488-1.719.83-2.656 1.015a4.182 4.182 0 00-7.126 3.814 11.874 11.874 0 01-8.62-4.37 4.168 4.168 0 00-.566 2.103c0 1.45.738 2.73 1.86 3.48a4.168 4.168 0 01-1.894-.522v.052a4.185 4.185 0 003.355 4.1 4.208 4.208 0 01-1.89.073A4.185 4.185 0 007.97 16.65a8.393 8.393 0 01-6.191 1.732 11.83 11.83 0 006.41 1.88c7.693 0 11.9-6.373 11.9-11.9 0-.18-.005-.362-.013-.54a8.495 8.495 0 002.087-2.165l-.001-.001z" fill="#A1A6B4"/></svg><svg fill="none" viewBox="0 0 24 24" id="social_(3)" xmlns="http://www.w3.org/2000/svg"><path d="M21.543 6.498C22 8.28 22 12 22 12s0 3.72-.457 5.502c-.254.985-.997 1.76-1.938 2.022C17.896 20 12 20 12 20s-5.893 0-7.605-.476c-.945-.266-1.687-1.04-1.938-2.022C2 15.72 2 12 2 12s0-3.72.457-5.502c.254-.985.997-1.76 1.938-2.022C6.107 4 12 4 12 4s5.896 0 7.605.476c.945.266 1.687 1.04 1.938 2.022zM10 15.5l6-3.5-6-3.5v7z" fill="#A1A6B4"/></svg><svg fill="none" viewBox="0 0 24 24" id="social_(4)" xmlns="http://www.w3.org/2000/svg"><path d="M12 2c2.717 0 3.056.01 4.122.06 1.065.05 1.79.217 2.428.465.66.254 1.216.598 1.772 1.153.509.5.902 1.105 1.153 1.772.247.637.415 1.363.465 2.428.047 1.066.06 1.405.06 4.122 0 2.717-.01 3.056-.06 4.122-.05 1.065-.218 1.79-.465 2.428a4.883 4.883 0 01-1.153 1.772c-.5.508-1.105.902-1.772 1.153-.637.247-1.363.415-2.428.465-1.066.047-1.405.06-4.122.06-2.717 0-3.056-.01-4.122-.06-1.065-.05-1.79-.218-2.428-.465a4.89 4.89 0 01-1.772-1.153 4.904 4.904 0 01-1.153-1.772c-.248-.637-.415-1.363-.465-2.428C2.013 15.056 2 14.717 2 12c0-2.717.01-3.056.06-4.122.05-1.066.217-1.79.465-2.428a4.88 4.88 0 011.153-1.772A4.897 4.897 0 015.45 2.525c.638-.248 1.362-.415 2.428-.465C8.944 2.013 9.283 2 12 2zm0 5a5 5 0 100 10 5 5 0 000-10zm6.5-.25a1.25 1.25 0 10-2.5 0 1.25 1.25 0 002.5 0zM12 9a3 3 0 110 6 3 3 0 010-6z" fill="#A1A6B4"/></svg></svg>